# xmcd
#
# Track frame offsets:
#	150
#	24612
#	38994
#	66265
#	96605
#	121575
#	142990
#	162075
#	173665
#	193365
#
# Disc length: 2853 seconds
#
# Revision: 0
# Processed by: cddbd v1.5PL3 Copyright (c) Steve Scherf et al.
# Submitted via: audiograbber 1.83.01
#
DISCID=890b230a
DTITLE=Various Artist - karma culture [CD1) karma kicks
DYEAR=2002
DGENRE=Lo-Fi
TTITLE0=niraj chag - redemption
TTITLE1=kam dhillon - ki kehne
TTITLE2=lelonek - connections (equal-i rmx)
TTITLE3=senses (bapi das baul) - mind
TTITLE4=dao - xiong
TTITLE5=dum dum project - elephant style
TTITLE6=jasmon - dimdanana
TTITLE7=yz, jessica and andrew lum - prelude to untitled #2
TTITLE8=dissidenten - morning dance (kulisch and vana version)
TTITLE9=kulisch vana - hietzing bhangra
EXTD=peacelounge 2002
EXTT0=
EXTT1=
EXTT2=
EXTT3=
EXTT4=
EXTT5=
EXTT6=
EXTT7=
EXTT8=
EXTT9=
PLAYORDER=
